<svg width="128" height="128" viewBox="0 0 128 128" fill="none" xmlns="http://www.w3.org/2000/svg">
<g filter="url(#filter0_d_1328_3717)">
<rect x="12" y="12" width="104" height="104" rx="19.6226" fill="#181E2E"/>
<path d="M64.1962 66.1584H96.3773C107.215 66.1584 116 74.9438 116 85.7811V96.3773C116 107.215 107.215 116 96.3773 116H83.8188C72.9815 116 64.1962 107.215 64.1962 96.3773V66.1584Z" fill="#25C165"/>
<path fill-rule="evenodd" clip-rule="evenodd" d="M65.5883 68.2402H64.2438V90.9923H66.7754V86.7837H65.5883V68.2402ZM67.7442 72.4163L73.8444 90.1703H76.6719L83.2806 70.9363H83.7409V90.9923H86.2725V68.2402H81.7024L75.2581 87.4743L68.8139 68.2402H67.7442V72.4163Z" fill="#F5F7F8"/>
<path d="M34.4522 40.591C31.1163 40.591 29.4484 41.8475 29.4484 44.3605C29.4484 45.7616 29.8265 46.729 30.5826 47.2627C31.361 47.7742 32.9177 48.2969 35.2528 48.8306C37.6101 49.3421 39.278 50.0204 40.2566 50.8655C41.2351 51.6883 41.7243 53.056 41.7243 54.9685C41.7243 59.7055 39.2669 62.0739 34.3521 62.0739C32.7287 62.0739 30.6938 61.8849 28.2475 61.5068L27.0466 61.34L27.3135 59.2051C30.338 59.6054 32.6397 59.8055 34.2187 59.8055C37.51 59.8055 39.1557 58.2599 39.1557 55.1687C39.1557 53.9233 38.7888 53.0338 38.0549 52.5C37.3433 51.944 35.9978 51.477 34.0185 51.099C31.4166 50.543 29.5707 49.8313 28.481 48.964C27.3913 48.0745 26.8464 46.5956 26.8464 44.5273C26.8464 40.3909 29.3261 38.3227 34.2854 38.3227C35.9088 38.3227 37.8547 38.4895 40.1231 38.823L41.2573 38.9898L41.0238 41.1581C37.9326 40.7801 35.742 40.591 34.4522 40.591Z" fill="#F5F7F8"/>
<path d="M45.6018 69.1793V45.0944H48.0703V46.2953C49.7605 45.2723 51.4284 44.7609 53.0741 44.7609C55.1868 44.7609 56.7213 45.4391 57.6775 46.7957C58.6338 48.1301 59.112 50.3428 59.112 53.4341C59.112 56.5253 58.5449 58.7492 57.4107 60.1058C56.2987 61.4401 54.4418 62.1073 51.8398 62.1073C50.4832 62.1073 49.2378 61.985 48.1036 61.7403V69.1793H45.6018ZM52.7071 46.9959C52.04 46.9959 51.3172 47.1071 50.5388 47.3295C49.7827 47.5518 49.1822 47.7742 48.7375 47.9966L48.1036 48.3302V59.572C49.6826 59.8167 50.8835 59.939 51.7064 59.939C53.5077 59.939 54.7642 59.4275 55.4759 58.4045C56.2098 57.3815 56.5767 55.7136 56.5767 53.4007C56.5767 51.0878 56.2431 49.4422 55.576 48.4636C54.931 47.4851 53.9747 46.9959 52.7071 46.9959Z" fill="#F5F7F8"/>
<path d="M64.2472 62.166V38.2146H66.7491V62.166H64.2472Z" fill="#F5F7F8"/>
<path d="M74.2508 62.166V45.4868H76.7527V62.166H74.2508ZM74.2508 41.7173V38.8151H76.7527V41.7173H74.2508Z" fill="#F5F7F8"/>
<path d="M93.2907 47.0664H87.9867V55.0391C87.9867 56.9517 88.1201 58.2082 88.387 58.8086C88.6761 59.4091 89.3433 59.7093 90.3885 59.7093L93.3574 59.5092L93.5242 61.5774C92.0342 61.822 90.9 61.9443 90.1216 61.9443C88.387 61.9443 87.1861 61.5218 86.5189 60.6767C85.8517 59.8316 85.5182 58.2193 85.5182 55.8397V47.0664H83.1497V44.8981H85.5182V39.7943H87.9867V44.8981H93.2907V47.0664Z" fill="#F5F7F8"/>
<path d="M101.388 88.5616L102.341 88.463L102.407 90.4028C99.908 90.7535 97.7709 90.9289 95.9955 90.9289C93.6282 90.9289 91.9514 90.2494 90.965 88.8904C89.9787 87.5095 89.4855 85.3724 89.4855 82.4791C89.4855 76.7143 91.776 73.8319 96.3571 73.8319C98.571 73.8319 100.226 74.4566 101.322 75.706C102.418 76.9335 102.966 78.8734 102.966 81.5256L102.834 83.3997H91.9843C91.9843 85.2189 92.3131 86.567 92.9706 87.4437C93.6282 88.3205 94.768 88.7589 96.39 88.7589C98.034 88.7589 99.6998 88.6931 101.388 88.5616ZM100.5 81.4269C100.5 79.4104 100.171 77.9856 99.5135 77.1527C98.8778 76.3198 97.8257 75.9033 96.3571 75.9033C94.9105 75.9033 93.8145 76.3417 93.0693 77.2185C92.3459 78.0952 91.9733 79.498 91.9514 81.4269H100.5Z" fill="#F5F7F8"/>
<rect x="64.1962" y="38.0981" width="2.55094" height="53.1774" fill="#F5F7F8"/>
</g>
<defs>
<filter id="filter0_d_1328_3717" x="0.226416" y="0.226416" width="127.547" height="127.547" filterUnits="userSpaceOnUse" color-interpolation-filters="sRGB">
<feFlood flood-opacity="0" result="BackgroundImageFix"/>
<feColorMatrix in="SourceAlpha" type="matrix" values="0 0 0 0 0 0 0 0 0 0 0 0 0 0 0 0 0 0 127 0" result="hardAlpha"/>
<feOffset/>
<feGaussianBlur stdDeviation="5.88679"/>
<feComposite in2="hardAlpha" operator="out"/>
<feColorMatrix type="matrix" values="0 0 0 0 0.145098 0 0 0 0 0.756863 0 0 0 0 0.396078 0 0 0 0.5 0"/>
<feBlend mode="normal" in2="BackgroundImageFix" result="effect1_dropShadow_1328_3717"/>
<feBlend mode="normal" in="SourceGraphic" in2="effect1_dropShadow_1328_3717" result="shape"/>
</filter>
</defs>
</svg>
