<svg width="14" height="20" viewBox="0 0 14 20" fill="none" xmlns="http://www.w3.org/2000/svg">
<path d="M12.0757 9.7412C11.9217 9.58717 11.7417 9.45731 11.5472 9.35704L11.3056 8.53797L6.46612 8.50414L6.28069 9.16314C5.9986 9.22053 5.65189 9.39811 5.43927 9.59684L3.25813 7.2085C2.76464 7.42836 2.41913 7.92125 2.41913 8.4969V9.07677L0.00302124 11.5932L0.0126856 12.9148L6.0433 19.3954C6.0433 19.3954 12.3965 10.161 12.4116 10.1791C12.3349 10.0438 12.1029 9.75449 12.0757 9.7412Z" fill="#D2A077"/>
<path d="M10.6194 9.12756H6.64431C6.51867 9.12756 6.39605 9.14024 6.27766 9.16441L6.23357 8.99648L4.25659 1.46783C4.25659 1.46783 4.00531 0.285741 5.18679 0.0350678C6.36827 -0.216209 6.61954 0.965277 6.61954 0.965277L8.49022 7.95332C8.75962 7.96782 9.02056 7.99138 9.27848 8.01795L10.5234 1.66837C10.5234 1.66837 10.6369 0.465742 11.8402 0.578696C13.0428 0.692254 12.9292 1.89488 12.9292 1.89488L11.6819 8.63648L11.5484 9.3577C11.2681 9.21575 10.9553 9.12756 10.6194 9.12756ZM1.15732 7.9195H1.25879C1.89846 7.9195 2.41611 8.43775 2.41611 9.07743V11.5938C2.41611 12.2335 1.89846 12.7517 1.25879 12.7517H1.15732C0.517652 12.7517 0 12.2335 0 11.5938V9.07743C0 8.43775 0.517652 7.9195 1.15732 7.9195ZM5.33598 9.70743L5.30216 9.74488C5.01585 10.0644 4.83222 10.4764 4.83222 10.9397C4.83222 10.9777 4.84008 11.014 4.8431 11.0514C4.86967 11.4609 5.02914 11.8318 5.28283 12.123C5.23994 12.2009 5.18437 12.2697 5.12639 12.3362C4.90531 12.5881 4.5888 12.7517 4.2282 12.7517C3.56135 12.7517 3.02014 12.2105 3.02014 11.5437V7.9195C3.02014 7.65312 3.10893 7.40909 3.25511 7.20915C3.47497 6.90895 3.82712 6.71143 4.2282 6.71143C4.89504 6.71143 5.43625 7.25264 5.43625 7.9195V9.5975C5.39941 9.63072 5.37041 9.67179 5.33598 9.70743Z" fill="#F3D2A2"/>
<path d="M1.24553 13.3556C1.86406 13.3556 2.40829 13.0379 2.7254 12.5571C2.7997 12.6676 2.88909 12.7661 2.98574 12.8573C3.70151 13.5308 4.81836 13.4879 5.50272 12.8054C5.59454 12.7136 5.68574 12.6211 5.75581 12.5106L5.754 12.5088C5.87541 12.5782 6.04031 12.7516 6.64434 12.7516H8.17676C7.95327 12.9201 7.7491 13.1279 7.55823 13.3556C6.81648 14.2418 6.34232 15.5338 6.34232 16.9798C6.34232 17.1465 6.47762 17.2818 6.64434 17.2818C6.81105 17.2818 6.94635 17.1465 6.94635 16.9798C6.94635 15.4408 7.5238 14.0956 8.38213 13.3556C8.82428 12.9745 9.33891 12.7516 9.89099 12.7516C10.3217 12.7993 10.4026 12.1476 9.96649 12.1476H6.64434C5.97749 12.1476 5.43628 11.6064 5.43628 10.9395C5.43628 10.2727 5.97749 9.73145 6.64434 9.73145H11.4766C11.9948 9.73145 12.4792 10.0914 12.6321 10.5862L13.2886 12.7516C13.3509 12.954 13.578 13.8817 13.5369 14.075C13.5369 16.9798 10.7004 20 7.24836 20C3.29983 20 0.0942559 16.8403 0.00848389 12.9123L0.0169402 12.9183C0.328015 13.1871 0.727277 13.3556 1.17063 13.3556H1.24553Z" fill="#F3D2A2"/>
</svg>
